<svg width="150" height="47" viewBox="0 0 150 47" fill="none" xmlns="http://www.w3.org/2000/svg">
<g id="Username_bubble">
<rect width="150" height="47" rx="23.5" fill="black" fill-opacity="0.01"/>
<rect x="0.5" y="0.5" width="149" height="46" rx="23" stroke="#F27303" stroke-opacity="0.2"/>
<path id="KaiDionKing" d="M29.6818 18V6.36364H30.392V13.1193H30.4716L36.608 6.36364H37.5511L32.5 11.8693L37.5057 18H36.6193L32.0455 12.3807L30.392 14.2102V18H29.6818ZM41.7969 18.1875C41.2931 18.1875 40.831 18.0871 40.4105 17.8864C39.9938 17.6856 39.6586 17.392 39.4048 17.0057C39.1548 16.6193 39.0298 16.1496 39.0298 15.5966C39.0298 15.233 39.0942 14.9129 39.223 14.6364C39.3518 14.3598 39.5507 14.1212 39.8196 13.9205C40.0885 13.7197 40.4332 13.5549 40.8537 13.4261C41.2741 13.2936 41.776 13.1913 42.3594 13.1193C42.8026 13.0663 43.1984 13.0152 43.5469 12.9659C43.8954 12.9129 44.1681 12.8314 44.3651 12.7216C44.5658 12.6117 44.6662 12.4451 44.6662 12.2216V11.858C44.6662 11.2216 44.4654 10.7159 44.0639 10.3409C43.6624 9.96591 43.1094 9.77841 42.4048 9.77841C41.7798 9.77841 41.2533 9.91667 40.8253 10.1932C40.401 10.4659 40.1037 10.8182 39.9332 11.25L39.2798 11.0057C39.4465 10.589 39.687 10.2424 40.0014 9.96591C40.3196 9.68939 40.6832 9.48295 41.0923 9.34659C41.5052 9.21023 41.937 9.14205 42.3878 9.14205C42.7779 9.14205 43.1491 9.19697 43.5014 9.30682C43.8575 9.41667 44.1738 9.58333 44.4503 9.80682C44.7306 10.0303 44.9522 10.3163 45.1151 10.6648C45.2779 11.0095 45.3594 11.4223 45.3594 11.9034V18H44.6662V16.4261H44.6151C44.4635 16.7519 44.2552 17.0492 43.9901 17.3182C43.7287 17.5833 43.4124 17.7955 43.0412 17.9545C42.6738 18.1098 42.259 18.1875 41.7969 18.1875ZM41.8651 17.5455C42.4105 17.5455 42.8935 17.4129 43.3139 17.1477C43.7382 16.8788 44.0696 16.5114 44.3082 16.0455C44.5469 15.5795 44.6662 15.0511 44.6662 14.4602V13.1761C44.5791 13.2519 44.4522 13.3201 44.2855 13.3807C44.1226 13.4375 43.937 13.4886 43.7287 13.5341C43.5241 13.5758 43.3082 13.6136 43.081 13.6477C42.8575 13.678 42.6397 13.7064 42.4276 13.733C41.7912 13.8087 41.2723 13.9261 40.8707 14.0852C40.473 14.2405 40.1813 14.4451 39.9957 14.6989C39.8139 14.9527 39.723 15.2595 39.723 15.6193C39.723 16.214 39.9276 16.6837 40.3366 17.0284C40.7457 17.3731 41.2552 17.5455 41.8651 17.5455ZM48.2997 18V9.27273H48.9872V18H48.2997ZM48.6463 7.72727C48.4948 7.72727 48.3622 7.67424 48.2486 7.56818C48.1387 7.46212 48.0838 7.33333 48.0838 7.18182C48.0838 7.0303 48.1387 6.90151 48.2486 6.79545C48.3584 6.68939 48.491 6.63636 48.6463 6.63636C48.7978 6.63636 48.9285 6.68939 49.0384 6.79545C49.152 6.90151 49.2088 7.0303 49.2088 7.18182C49.2088 7.33333 49.1539 7.46212 49.044 7.56818C48.9342 7.67424 48.8016 7.72727 48.6463 7.72727ZM55.3622 18H52.1349V6.36364H55.6122C56.7031 6.36364 57.6368 6.5947 58.4134 7.05682C59.1899 7.51894 59.7846 8.18182 60.1974 9.04545C60.6141 9.9053 60.8205 10.9375 60.8168 12.142C60.813 13.3731 60.5971 14.4261 60.169 15.3011C59.741 16.1723 59.1217 16.8409 58.3111 17.3068C57.5005 17.7689 56.5175 18 55.3622 18ZM52.8452 17.3409H55.3338C56.3717 17.3409 57.2467 17.1345 57.9588 16.7216C58.6709 16.3049 59.2088 15.7083 59.5724 14.9318C59.9399 14.1553 60.1217 13.2254 60.1179 12.142C60.1179 11.0739 59.9418 10.1591 59.5895 9.39773C59.2372 8.63258 58.724 8.04545 58.0497 7.63636C57.3793 7.22727 56.5573 7.02273 55.5838 7.02273H52.8452V17.3409ZM63.3778 18V9.27273H64.0653V18H63.3778ZM63.7244 7.72727C63.5729 7.72727 63.4403 7.67424 63.3267 7.56818C63.2169 7.46212 63.1619 7.33333 63.1619 7.18182C63.1619 7.0303 63.2169 6.90151 63.3267 6.79545C63.4366 6.68939 63.5691 6.63636 63.7244 6.63636C63.8759 6.63636 64.0066 6.68939 64.1165 6.79545C64.2301 6.90151 64.2869 7.0303 64.2869 7.18182C64.2869 7.33333 64.232 7.46212 64.1222 7.56818C64.0123 7.67424 63.8797 7.72727 63.7244 7.72727ZM70.2131 18.1818C69.4934 18.1818 68.8532 17.9886 68.2926 17.6023C67.732 17.2121 67.2907 16.6761 66.9688 15.9943C66.6468 15.3125 66.4858 14.536 66.4858 13.6648C66.4858 12.7898 66.6468 12.0133 66.9688 11.3352C67.2907 10.6534 67.732 10.1174 68.2926 9.72727C68.8532 9.33712 69.4934 9.14205 70.2131 9.14205C70.9328 9.14205 71.5729 9.33712 72.1335 9.72727C72.6941 10.1174 73.1354 10.6534 73.4574 11.3352C73.7794 12.017 73.9403 12.7936 73.9403 13.6648C73.9403 14.536 73.7794 15.3125 73.4574 15.9943C73.1354 16.6761 72.6941 17.2121 72.1335 17.6023C71.5729 17.9886 70.9328 18.1818 70.2131 18.1818ZM70.2131 17.5398C70.8229 17.5398 71.3551 17.3674 71.8097 17.0227C72.268 16.678 72.6222 16.2121 72.8722 15.625C73.1259 15.0379 73.2528 14.3845 73.2528 13.6648C73.2528 12.9451 73.1259 12.2936 72.8722 11.7102C72.6184 11.1231 72.2642 10.6572 71.8097 10.3125C71.3551 9.96401 70.8229 9.78977 70.2131 9.78977C69.6032 9.78977 69.071 9.96401 68.6165 10.3125C68.1619 10.6572 67.8078 11.1231 67.554 11.7102C67.3002 12.2936 67.1733 12.9451 67.1733 13.6648C67.1733 14.3845 67.2983 15.0379 67.5483 15.625C67.8021 16.2121 68.1562 16.678 68.6108 17.0227C69.0691 17.3674 69.6032 17.5398 70.2131 17.5398ZM77.0213 12.3409V18H76.3281V9.27273H77.0043V10.6534H77.0724C77.277 10.2027 77.6046 9.84091 78.0554 9.56818C78.5062 9.29545 79.0421 9.15909 79.6634 9.15909C80.2505 9.15909 80.7656 9.28409 81.2088 9.53409C81.6558 9.78409 82.0043 10.1402 82.2543 10.6023C82.508 11.0606 82.6349 11.608 82.6349 12.2443V18H81.9418V12.2727C81.9418 11.5303 81.7202 10.9337 81.277 10.483C80.8376 10.0284 80.2562 9.80114 79.5327 9.80114C79.0478 9.80114 78.616 9.9072 78.2372 10.1193C77.8584 10.3314 77.5611 10.6288 77.3452 11.0114C77.1293 11.3902 77.0213 11.8333 77.0213 12.3409ZM85.7599 18V6.36364H86.4702V13.1193H86.5497L92.6861 6.36364H93.6293L88.5781 11.8693L93.5838 18H92.6974L88.1236 12.3807L86.4702 14.2102V18H85.7599ZM96.1435 18V9.27273H96.831V18H96.1435ZM96.4901 7.72727C96.3385 7.72727 96.206 7.67424 96.0923 7.56818C95.9825 7.46212 95.9276 7.33333 95.9276 7.18182C95.9276 7.0303 95.9825 6.90151 96.0923 6.79545C96.2022 6.68939 96.3348 6.63636 96.4901 6.63636C96.6416 6.63636 96.7723 6.68939 96.8821 6.79545C96.9957 6.90151 97.0526 7.0303 97.0526 7.18182C97.0526 7.33333 96.9976 7.46212 96.8878 7.56818C96.7779 7.67424 96.6454 7.72727 96.4901 7.72727ZM100.428 12.3409V18H99.7344V9.27273H100.411V10.6534H100.479C100.683 10.2027 101.011 9.84091 101.462 9.56818C101.912 9.29545 102.448 9.15909 103.07 9.15909C103.657 9.15909 104.172 9.28409 104.615 9.53409C105.062 9.78409 105.411 10.1402 105.661 10.6023C105.914 11.0606 106.041 11.608 106.041 12.2443V18H105.348V12.2727C105.348 11.5303 105.126 10.9337 104.683 10.483C104.244 10.0284 103.662 9.80114 102.939 9.80114C102.454 9.80114 102.022 9.9072 101.643 10.1193C101.265 10.3314 100.967 10.6288 100.751 11.0114C100.536 11.3902 100.428 11.8333 100.428 12.3409ZM112.07 21.4545C111.528 21.4545 111.041 21.3826 110.609 21.2386C110.178 21.0985 109.81 20.8977 109.507 20.6364C109.208 20.375 108.979 20.0644 108.82 19.7045L109.399 19.3636C109.528 19.6439 109.712 19.8939 109.95 20.1136C110.189 20.3333 110.484 20.5057 110.837 20.6307C111.193 20.7557 111.604 20.8182 112.07 20.8182C112.911 20.8182 113.575 20.6004 114.064 20.1648C114.556 19.733 114.803 19.0701 114.803 18.1761V16.0057H114.734C114.602 16.3845 114.405 16.7216 114.143 17.017C113.886 17.3087 113.57 17.5379 113.195 17.7045C112.82 17.8712 112.393 17.9545 111.916 17.9545C111.227 17.9545 110.621 17.7765 110.098 17.4205C109.575 17.0644 109.168 16.5644 108.876 15.9205C108.585 15.2727 108.439 14.5114 108.439 13.6364C108.439 12.7614 108.581 11.9867 108.865 11.3125C109.153 10.6345 109.558 10.1042 110.081 9.72159C110.604 9.33523 111.217 9.14205 111.922 9.14205C112.426 9.14205 112.861 9.23864 113.229 9.43182C113.6 9.62121 113.911 9.87311 114.161 10.1875C114.411 10.5019 114.604 10.8466 114.74 11.2216H114.82V9.27273H115.49V18.2045C115.49 18.9318 115.346 19.536 115.058 20.017C114.774 20.4981 114.375 20.858 113.859 21.0966C113.348 21.3352 112.751 21.4545 112.07 21.4545ZM111.979 17.3125C112.562 17.3125 113.064 17.1648 113.484 16.8693C113.909 16.5701 114.234 16.1458 114.462 15.5966C114.693 15.0436 114.808 14.3883 114.808 13.6307C114.808 12.8958 114.696 12.2386 114.473 11.6591C114.25 11.0795 113.926 10.6231 113.501 10.2898C113.077 9.95644 112.57 9.78977 111.979 9.78977C111.376 9.78977 110.863 9.96023 110.439 10.3011C110.015 10.6383 109.689 11.0966 109.462 11.6761C109.238 12.2557 109.126 12.9072 109.126 13.6307C109.126 14.358 109.24 14.9981 109.467 15.5511C109.695 16.1004 110.02 16.5322 110.445 16.8466C110.869 17.1572 111.38 17.3125 111.979 17.3125Z" fill="white"/>
<g id="Frame">
<rect x="27.7383" y="27" width="99" height="20" rx="10" fill="black" fill-opacity="0.01"/>
<rect x="28.2383" y="27.5" width="98" height="19" rx="9.5" stroke="#F27303" stroke-opacity="0.2"/>
<path id="252.5M" d="M49.1246 44V43.4602L52.8917 39.1193C53.4296 38.4981 53.8557 37.9716 54.1701 37.5398C54.4845 37.108 54.7099 36.7178 54.8462 36.3693C54.9826 36.0208 55.0508 35.6572 55.0508 35.2784C55.0508 34.8049 54.939 34.3864 54.7156 34.0227C54.4959 33.6553 54.1947 33.3693 53.8121 33.1648C53.4334 32.9602 53.0015 32.858 52.5167 32.858C52.0091 32.858 51.564 32.9697 51.1815 33.1932C50.7989 33.4167 50.4996 33.7197 50.2837 34.1023C50.0716 34.4848 49.9656 34.9148 49.9656 35.392H49.2781C49.2781 34.7898 49.4182 34.2481 49.6985 33.767C49.9788 33.286 50.3633 32.9053 50.8519 32.625C51.3443 32.3447 51.9049 32.2045 52.5337 32.2045C53.1512 32.2045 53.7004 32.339 54.1815 32.608C54.6625 32.8769 55.0413 33.2443 55.3178 33.7102C55.5943 34.1723 55.7326 34.6951 55.7326 35.2784C55.7326 35.7064 55.6587 36.1193 55.511 36.517C55.3671 36.911 55.119 37.3523 54.7667 37.8409C54.4144 38.3258 53.9277 38.9242 53.3065 39.6364L50.1474 43.2784V43.3409H56.2553V44H49.1246ZM62.1332 44.1591C61.512 44.1591 60.957 44.0284 60.4684 43.767C59.9835 43.5019 59.5991 43.1383 59.315 42.6761C59.0347 42.214 58.8907 41.6856 58.8832 41.0909H59.582C59.5972 41.7955 59.8415 42.3731 60.315 42.8239C60.7885 43.2746 61.3945 43.5 62.1332 43.5C62.7013 43.5 63.2013 43.3636 63.6332 43.0909C64.0688 42.8144 64.4097 42.4394 64.6559 41.9659C64.9021 41.4924 65.0233 40.9583 65.0195 40.3636C65.0195 39.7348 64.887 39.1856 64.6218 38.7159C64.3567 38.2462 64.0025 37.8826 63.5593 37.625C63.1161 37.3674 62.6256 37.2367 62.0877 37.233C61.6635 37.233 61.2657 37.3106 60.8945 37.4659C60.5233 37.6174 60.207 37.8125 59.9457 38.0511L59.1445 37.9375L59.832 32.3636H65.2866V33.0227H60.44L59.9059 37.3807H59.9627C60.2354 37.1383 60.5593 36.9432 60.9343 36.7955C61.3131 36.6439 61.7241 36.5682 62.1673 36.5682C62.8188 36.5682 63.4135 36.7273 63.9513 37.0455C64.493 37.3636 64.9229 37.8068 65.2411 38.375C65.5631 38.9432 65.7222 39.6042 65.7184 40.358C65.7146 41.0852 65.5593 41.7348 65.2525 42.3068C64.9457 42.8788 64.5214 43.3314 63.9798 43.6648C63.4419 43.9943 62.8263 44.1591 62.1332 44.1591ZM68.2965 44V43.4602L72.0636 39.1193C72.6014 38.4981 73.0276 37.9716 73.342 37.5398C73.6564 37.108 73.8817 36.7178 74.0181 36.3693C74.1545 36.0208 74.2227 35.6572 74.2227 35.2784C74.2227 34.8049 74.1109 34.3864 73.8874 34.0227C73.6677 33.6553 73.3666 33.3693 72.984 33.1648C72.6052 32.9602 72.1734 32.858 71.6886 32.858C71.181 32.858 70.7359 32.9697 70.3533 33.1932C69.9708 33.4167 69.6715 33.7197 69.4556 34.1023C69.2435 34.4848 69.1374 34.9148 69.1374 35.392H68.4499C68.4499 34.7898 68.5901 34.2481 68.8704 33.767C69.1507 33.286 69.5352 32.9053 70.0238 32.625C70.5162 32.3447 71.0768 32.2045 71.7056 32.2045C72.323 32.2045 72.8723 32.339 73.3533 32.608C73.8344 32.8769 74.2132 33.2443 74.4897 33.7102C74.7662 34.1723 74.9045 34.6951 74.9045 35.2784C74.9045 35.7064 74.8306 36.1193 74.6829 36.517C74.5389 36.911 74.2908 37.3523 73.9386 37.8409C73.5863 38.3258 73.0996 38.9242 72.4783 39.6364L69.3192 43.2784V43.3409H75.4272V44H68.2965ZM78.8391 44.0739C78.6687 44.0739 78.5228 44.0152 78.4016 43.8977C78.2842 43.7765 78.2255 43.6307 78.2255 43.4602C78.2255 43.2936 78.2842 43.1496 78.4016 43.0284C78.5228 42.9072 78.6687 42.8466 78.8391 42.8466C79.0058 42.8466 79.1497 42.9072 79.271 43.0284C79.3922 43.1496 79.4528 43.2936 79.4528 43.4602C79.4528 43.5739 79.4244 43.678 79.3675 43.7727C79.3145 43.8636 79.2406 43.9375 79.146 43.9943C79.055 44.0473 78.9528 44.0739 78.8391 44.0739ZM85.3988 44.1591C84.7776 44.1591 84.2227 44.0284 83.734 43.767C83.2492 43.5019 82.8647 43.1383 82.5806 42.6761C82.3003 42.214 82.1564 41.6856 82.1488 41.0909H82.8477C82.8628 41.7955 83.1071 42.3731 83.5806 42.8239C84.0541 43.2746 84.6602 43.5 85.3988 43.5C85.967 43.5 86.467 43.3636 86.8988 43.0909C87.3344 42.8144 87.6753 42.4394 87.9215 41.9659C88.1677 41.4924 88.2889 40.9583 88.2852 40.3636C88.2852 39.7348 88.1526 39.1856 87.8874 38.7159C87.6223 38.2462 87.2681 37.8826 86.8249 37.625C86.3817 37.3674 85.8912 37.2367 85.3533 37.233C84.9291 37.233 84.5314 37.3106 84.1602 37.4659C83.7889 37.6174 83.4727 37.8125 83.2113 38.0511L82.4102 37.9375L83.0977 32.3636H88.5522V33.0227H83.7056L83.1715 37.3807H83.2283C83.5011 37.1383 83.8249 36.9432 84.1999 36.7955C84.5787 36.6439 84.9897 36.5682 85.4329 36.5682C86.0844 36.5682 86.6791 36.7273 87.217 37.0455C87.7586 37.3636 88.1886 37.8068 88.5067 38.375C88.8287 38.9432 88.9878 39.6042 88.984 40.358C88.9802 41.0852 88.8249 41.7348 88.5181 42.3068C88.2113 42.8788 87.7871 43.3314 87.2454 43.6648C86.7075 43.9943 86.092 44.1591 85.3988 44.1591ZM91.8576 32.3636H92.6303L97.1133 42.9773H97.1928L101.676 32.3636H102.449V44H101.767V34.0511H101.699L97.4883 44H96.8178L92.6076 34.0511H92.5394V44H91.8576V32.3636Z" fill="#FF7700"/>
</g>
</g>
</svg>
