<svg width="28" height="26" viewBox="0 0 28 26" fill="none" xmlns="http://www.w3.org/2000/svg">
<g id="comment_button">
<rect width="28" height="26" rx="13" fill="black" fill-opacity="0.01"/>
<rect x="0.5" y="0.5" width="27" height="25" rx="12.5" stroke="#F27303" stroke-opacity="0.2"/>
<path id="Vector" d="M9.77738 19.915C11.1159 20.7087 12.669 21.1628 14.3253 21.1628C19.36 21.1628 23.4419 16.9668 23.4419 11.7907C23.4419 6.61462 19.3604 2.41858 14.3256 2.41858C9.29085 2.41858 5.20935 6.61462 5.20935 11.7907C5.20935 13.4934 5.65103 15.0901 6.42302 16.4662L6.42601 16.4715C6.5003 16.6039 6.53775 16.6707 6.55472 16.7338C6.57072 16.7933 6.57519 16.8468 6.57109 16.9084C6.56669 16.9746 6.54499 17.0433 6.5005 17.1805L5.72175 19.5823L5.72077 19.5855C5.55646 20.0922 5.4743 20.3456 5.53286 20.5144C5.58392 20.6616 5.69726 20.7778 5.84045 20.8303C6.00431 20.8904 6.24967 20.8063 6.74043 20.6381L6.74654 20.6358L9.0828 19.8352C9.21583 19.7896 9.28345 19.7665 9.34773 19.762C9.40765 19.7578 9.45934 19.7633 9.51723 19.7798C9.57877 19.7973 9.64375 19.8358 9.7732 19.9126L9.77738 19.915Z" stroke="#F27303" stroke-linecap="round" stroke-linejoin="round"/>
</g>
</svg>
