<svg width="66" height="26" viewBox="0 0 66 26" fill="none" xmlns="http://www.w3.org/2000/svg">
<g id="like_widget">
<g id="likes_widget">
<rect y="4" width="60.6774" height="20" rx="10" fill="black" fill-opacity="0.01"/>
<rect x="0.5" y="4.5" width="59.6774" height="19" rx="9.5" stroke="#F27303" stroke-opacity="0.2"/>
<path id="25K" d="M5.38636 19V18.4602L9.15341 14.1193C9.69129 13.4981 10.1174 12.9716 10.4318 12.5398C10.7462 12.108 10.9716 11.7178 11.108 11.3693C11.2443 11.0208 11.3125 10.6572 11.3125 10.2784C11.3125 9.80492 11.2008 9.38636 10.9773 9.02273C10.7576 8.6553 10.4564 8.36932 10.0739 8.16477C9.69508 7.96023 9.26326 7.85795 8.77841 7.85795C8.27083 7.85795 7.82576 7.9697 7.44318 8.19318C7.06061 8.41667 6.76136 8.7197 6.54545 9.10227C6.33333 9.48485 6.22727 9.91477 6.22727 10.392H5.53977C5.53977 9.78977 5.67992 9.24811 5.96023 8.76705C6.24053 8.28598 6.625 7.9053 7.11364 7.625C7.60606 7.3447 8.16667 7.20455 8.79545 7.20455C9.41288 7.20455 9.96212 7.33901 10.4432 7.60795C10.9242 7.87689 11.303 8.24432 11.5795 8.71023C11.8561 9.17235 11.9943 9.69508 11.9943 10.2784C11.9943 10.7064 11.9205 11.1193 11.7727 11.517C11.6288 11.911 11.3807 12.3523 11.0284 12.8409C10.6761 13.3258 10.1894 13.9242 9.56818 14.6364L6.40909 18.2784V18.3409H12.517V19H5.38636ZM18.3949 19.1591C17.7737 19.1591 17.2188 19.0284 16.7301 18.767C16.2453 18.5019 15.8608 18.1383 15.5767 17.6761C15.2964 17.214 15.1525 16.6856 15.1449 16.0909H15.8438C15.8589 16.7955 16.1032 17.3731 16.5767 17.8239C17.0502 18.2746 17.6563 18.5 18.3949 18.5C18.9631 18.5 19.4631 18.3636 19.8949 18.0909C20.3305 17.8144 20.6714 17.4394 20.9176 16.9659C21.1638 16.4924 21.285 15.9583 21.2812 15.3636C21.2812 14.7348 21.1487 14.1856 20.8835 13.7159C20.6184 13.2462 20.2642 12.8826 19.821 12.625C19.3778 12.3674 18.8873 12.2367 18.3494 12.233C17.9252 12.233 17.5275 12.3106 17.1562 12.4659C16.785 12.6174 16.4688 12.8125 16.2074 13.0511L15.4062 12.9375L16.0938 7.36364H21.5483V8.02273H16.7017L16.1676 12.3807H16.2244C16.4972 12.1383 16.821 11.9432 17.196 11.7955C17.5748 11.6439 17.9858 11.5682 18.429 11.5682C19.0805 11.5682 19.6752 11.7273 20.2131 12.0455C20.7547 12.3636 21.1847 12.8068 21.5028 13.375C21.8248 13.9432 21.9839 14.6042 21.9801 15.358C21.9763 16.0852 21.821 16.7348 21.5142 17.3068C21.2074 17.8788 20.7831 18.3314 20.2415 18.6648C19.7036 18.9943 19.0881 19.1591 18.3949 19.1591ZM24.8537 19V7.36364H25.5639V14.1193H25.6435L31.7798 7.36364H32.723L27.6719 12.8693L32.6776 19H31.7912L27.2173 13.3807L25.5639 15.2102V19H24.8537Z" fill="#FF7700"/>
</g>
<g id="Like_button">
<rect x="36.1936" width="29.8065" height="26" rx="13" fill="black" fill-opacity="0.01"/>
<rect x="36.6936" y="0.5" width="28.8065" height="25" rx="12.5" stroke="#F27303" stroke-opacity="0.2"/>
<path id="Vector" d="M50.9117 8.24538C48.8239 3.41535 41.5162 3.92979 41.5162 10.1031C41.5162 16.2765 50.9117 21.4211 50.9117 21.4211C50.9117 21.4211 60.3073 16.2765 60.3073 10.1031C60.3073 3.92979 52.9996 3.41535 50.9117 8.24538Z" stroke="#F9F8F8" stroke-linecap="round" stroke-linejoin="round"/>
</g>
</g>
</svg>
